<?xml version="1.0" standalone="no"?><!DOCTYPE svg PUBLIC "-//W3C//DTD SVG 1.1//EN" "http://www.w3.org/Graphics/SVG/1.1/DTD/svg11.dtd"><svg t="1516780298728" class="icon" style="" viewBox="0 0 1024 1024" version="1.1" xmlns="http://www.w3.org/2000/svg" p-id="1415" xmlns:xlink="http://www.w3.org/1999/xlink" width="200" height="200"><defs><style type="text/css"></style></defs><path d="M327.68 604.16h133.12c11.264 0 20.48-9.216 20.48-20.48V276.48c0-22.528-20.48-40.96-40.96-40.96H330.752C317.44 235.52 307.2 245.76 307.2 259.072V583.68c0 11.264 9.216 20.48 20.48 20.48z m450.56-307.2v327.68c0 22.528-18.432 40.96-40.96 40.96H286.72c-22.528 0-40.96-18.432-40.96-40.96V296.96c-33.792 0-61.44 27.648-61.44 61.44v307.2c0 33.792 27.648 61.44 61.44 61.44h194.56c11.264 0 20.48 9.216 20.48 20.48s9.216 20.48 20.48 20.48h61.44c11.264 0 20.48-9.216 20.48-20.48s9.216-20.48 20.48-20.48h194.56c33.792 0 61.44-27.648 61.44-61.44V358.4c0-33.792-27.648-61.44-61.44-61.44zM563.2 604.16h130.048c13.312 0 23.552-10.24 23.552-23.552V256c0-11.264-9.216-20.48-20.48-20.48H583.68c-20.48 0-40.96 18.432-40.96 40.96v307.2c0 11.264 9.216 20.48 20.48 20.48z" p-id="1416"></path></svg>