<?xml version="1.0" standalone="no"?><!DOCTYPE svg PUBLIC "-//W3C//DTD SVG 1.1//EN" "http://www.w3.org/Graphics/SVG/1.1/DTD/svg11.dtd"><svg t="1517822765603" class="icon" style="" viewBox="0 0 1024 1024" version="1.1" xmlns="http://www.w3.org/2000/svg" p-id="2334" xmlns:xlink="http://www.w3.org/1999/xlink" width="200" height="200"><defs><style type="text/css"></style></defs><path d="M746.500337 444.954001l-39.047318 0c-7.852852 0-14.527878-3.227508-19.806091-9.903557-5.41022-6.588045-8.15882-14.44192-8.15882-23.559579 0-46.332235-16.316617-85.859483-48.950875-118.449739-32.722262-32.67826-72.249511-49.082882-118.581746-49.082882l-100.519368 0c-46.332235 0-85.773526 16.404622-118.449739 49.082882-32.67826 32.590256-49.082882 72.117504-49.082882 118.449739l0 201.01827c0 46.332235 16.404622 85.881996 49.082882 118.559233 32.676214 32.69975 72.117504 48.994877 118.449739 48.994877l201.125717 0c46.334281 0 85.773526-16.295128 118.451786-48.994877 32.67826-32.67826 49.080835-72.226998 49.080835-118.559233L780.094456 478.547097c0-9.140171-3.315512-16.991999-10.033517-23.668049C763.514849 448.313515 755.661997 444.954001 746.500337 444.954001zM388.575458 391.18233c7.066953-8.748245 15.399735-13.154601 25.12933-13.154601l107.281375 0c9.643638 0 18.063401 4.40738 25.131377 13.154601 7.02295 8.834202 10.600429 19.327184 10.600429 31.498388 0 12.08627-3.577478 22.578228-10.600429 31.41243-7.066953 8.834202-15.487739 13.240559-25.131377 13.240559L413.703765 467.333708c-9.729595 0-18.061354-4.40738-25.12933-13.240559-7.068999-8.834202-10.602476-19.327184-10.602476-31.41243C377.971959 410.509515 381.505435 400.016533 388.575458 391.18233zM636.121414 632.81767c-6.719028 8.855692-14.527878 13.263072-23.559579 13.263072L411.435095 646.080741c-9.031701 0-16.97051-4.40738-23.559579-13.263072-6.544043-8.81169-9.903557-19.327184-9.903557-31.498388 0-12.063757 3.359514-22.578228 9.903557-31.41243 6.589069-8.813736 14.527878-13.240559 23.559579-13.240559l201.125717 0c9.031701 0 16.84055 4.426823 23.559579 13.240559 6.544043 8.834202 9.903557 19.348674 9.903557 31.41243C646.024971 613.490485 642.664434 624.004957 636.121414 632.81767zM780.093433 65.213257 243.903497 65.213257c-98.642624 0-178.61298 80.101339-178.61298 178.744987l0 536.105001c0 98.730629 79.969333 178.722474 178.61298 178.722474l536.190959 0c98.642624 0 178.615027-79.991846 178.615027-178.722474L958.709483 243.958244C958.70846 145.31562 878.73708 65.213257 780.093433 65.213257zM869.401458 735.387743c0 74.015737-59.989279 133.983527-134.069485 133.983527L288.667004 869.37127c-74.082252 0-134.115534-59.96779-134.115534-133.983527l0-446.775486c0-74.015737 60.033281-133.961014 134.115534-133.961014l446.664969 0c74.080206 0 134.069485 59.945277 134.069485 133.961014L869.401458 735.387743z" p-id="2335" fill="#d81e06"></path></svg>