<?xml version="1.0" standalone="no"?><!DOCTYPE svg PUBLIC "-//W3C//DTD SVG 1.1//EN" "http://www.w3.org/Graphics/SVG/1.1/DTD/svg11.dtd"><svg t="1509522549955" class="icon" style="" viewBox="0 0 1024 1024" version="1.1" xmlns="http://www.w3.org/2000/svg" p-id="1788" xmlns:xlink="http://www.w3.org/1999/xlink" width="200" height="200"><defs><style type="text/css"></style></defs><path d="M965.963701 486.74685 526.971481 47.839565 89.258395 485.532185c-8.363482 8.383948-8.363482 21.966291 0 30.349215 8.42488 8.385994 21.98778 8.385994 30.349215 0l76.296687-76.252685L195.904297 877.321336c0 30.099529 24.460088 54.580083 54.559617 54.580083l559.219441 0c30.099529 0 54.580083-24.480554 54.580083-54.580083L864.263437 445.791066l71.351048 71.307046c4.15053 4.234441 9.641591 6.246261 15.174608 6.246261 5.449106 0 10.982122-2.012843 15.175631-6.246261C974.347648 508.756119 974.347648 495.131821 965.963701 486.74685M821.337789 877.321336c0 6.415107-5.240351 11.654434-11.655458 11.654434L250.463913 888.97577c-6.415107 0-11.632945-5.239328-11.632945-11.654434L238.830969 396.703067l288.140513-288.204981L821.337789 402.865417 821.337789 877.321336 821.337789 877.321336z" p-id="1789"></path><path d="M406.408615 455.833793c0 66.821895 54.328349 121.193223 121.193223 121.193223 66.862827 0 121.1922-54.371328 121.1922-121.193223 0-66.819848-54.329373-121.149221-121.1922-121.149221C460.736964 334.685595 406.408615 389.013945 406.408615 455.833793M527.600815 377.61022c43.134403 0 78.263481 35.130102 78.263481 78.223572 0 43.179428-35.129078 78.265528-78.263481 78.265528-43.136449 0-78.266551-35.087123-78.266551-78.265528C449.334263 412.740322 484.464365 377.61022 527.600815 377.61022" p-id="1790"></path></svg>