<?xml version="1.0" standalone="no"?><!DOCTYPE svg PUBLIC "-//W3C//DTD SVG 1.1//EN" "http://www.w3.org/Graphics/SVG/1.1/DTD/svg11.dtd"><svg t="1516780794178" class="icon" style="" viewBox="0 0 1024 1024" version="1.1" xmlns="http://www.w3.org/2000/svg" p-id="2285" xmlns:xlink="http://www.w3.org/1999/xlink" width="200" height="200"><defs><style type="text/css"></style></defs><path d="M841.142857 566.857143V841.142857c0 20.004571-16.566857 36.571429-36.571428 36.571429h-219.428572v-219.428572h-146.285714v219.428572H219.428571c-20.004571 0-36.571429-16.566857-36.571428-36.571429v-274.285714c0-1.133714 0.585143-2.304 0.585143-3.437714L512 292.571429l328.557714 270.848c0.585143 1.133714 0.585143 2.304 0.585143 3.437714z m127.414857-39.424l-35.437714 42.276571a19.017143 19.017143 0 0 1-11.995429 6.290286h-1.718857a17.92 17.92 0 0 1-11.995428-3.986286L511.963429 242.285714 116.516571 572.013714a19.419429 19.419429 0 0 1-13.714285 3.986286 19.017143 19.017143 0 0 1-11.995429-6.290286l-35.437714-42.276571a18.651429 18.651429 0 0 1 2.304-25.709714L468.516571 159.451429c23.990857-20.004571 62.866286-20.004571 86.857143 0l139.446857 116.553142V164.571429c0-10.276571 8.009143-18.285714 18.285715-18.285715h109.714285c10.276571 0 18.285714 8.009143 18.285715 18.285715v233.142857l125.147428 104.009143c7.424 6.290286 8.557714 18.285714 2.304 25.709714z" fill="" p-id="2286"></path></svg>