<?xml version="1.0" standalone="no"?><!DOCTYPE svg PUBLIC "-//W3C//DTD SVG 1.1//EN" "http://www.w3.org/Graphics/SVG/1.1/DTD/svg11.dtd"><svg t="1517217822695" class="icon" style="" viewBox="0 0 1024 1024" version="1.1" xmlns="http://www.w3.org/2000/svg" p-id="1045" xmlns:xlink="http://www.w3.org/1999/xlink" width="200" height="200"><defs><style type="text/css"></style></defs><path d="M548.00384 101.86752c-18.24256-18.23744-42.22976-27.35104-66.23232-26.97216H220.60544c-50.944 0-92.25728 41.28256-92.25728 92.24704v261.12512c-0.36352 24.00256 8.76032 47.99488 26.97216 66.21696l454.62528 451.57376c28.8256 28.84096 75.32544 28.84096 103.9872 0l191.96928-191.93856V462.06976l-357.89824-360.20224z m-297.26208 145.8176c-27.84256 0-50.39616-22.56896-50.39616-50.39616a50.3808 50.3808 0 0 1 50.39616-50.39616c27.8272 0 50.39616 22.5536 50.39616 50.39616 0 27.8272-22.56896 50.39616-50.39616 50.39616z" fill="" p-id="1046"></path><path d="M548.00384 73.06752c-18.24256-18.23744-42.22976-27.35104-66.23232-26.97216H220.60544c-50.944 0-92.25728 41.28256-92.25728 92.24704v261.12512c-0.36352 24.00256 8.76032 47.98976 26.97216 66.21696l454.62528 451.57888c28.8256 28.84096 75.32544 28.84096 103.9872 0l191.96928-191.94368v-292.0448l-357.89824-360.20736z m-297.26208 145.8176c-27.84256 0-50.39616-22.56896-50.39616-50.39616a50.3808 50.3808 0 0 1 50.39616-50.39616c27.8272 0 50.39616 22.5536 50.39616 50.39616 0 27.8272-22.56896 50.39616-50.39616 50.39616z" fill="#9593BE" p-id="1047"></path><path d="M849.62304 563.73248L503.44448 217.56416a28.78976 28.78976 0 0 0-40.72448 0l-10.18368 10.17856-142.5408 142.5408-10.17856 10.18368a28.78976 28.78976 0 0 0 0 40.72448l346.16832 346.18368a28.80512 28.80512 0 0 0 40.73472 0l10.17856-10.17856 142.54592-142.54592 10.17856-10.17856a28.8 28.8 0 0 0 0-40.73984z" fill="#8482A9" p-id="1048"></path><path d="M766.36672 600.97024l41.12896 222.73536 98.4064-98.39104v-150.10304z" fill="" p-id="1049"></path><path d="M900.50048 420.45952l-122.17856 118.80448a54.89152 54.89152 0 0 0 0 79.19616l122.17856 118.8096 5.2992-5.16096V425.60512l-5.2992-5.1456z" fill="#C0BEE7" p-id="1050"></path></svg>